<svg width="226" height="150" viewBox="0 0 226 150" fill="none" xmlns="http://www.w3.org/2000/svg">
<path fill-rule="evenodd" clip-rule="evenodd" d="M221 0C223.761 2.57702e-07 226 2.23858 226 5V35C226 37.7614 223.761 40 221 40H181C167.5 40 162 47.7 162 78.5L161.923 78.3809C160.155 118.233 127.288 150 87 150C45.5786 150 12 116.421 12 75C12 33.5786 45.5786 0 87 0C87.2718 0 87.5433 0.00199789 87.8145 0.00488281C87.876 0.00263533 87.9379 0 88 0H221ZM86.5 38C65.7893 38 49 54.7893 49 75.5C49 96.2107 65.7893 113 86.5 113C107.211 113 124 96.2107 124 75.5C124 54.7893 107.211 38 86.5 38Z" fill="#3794FF"/>
<path d="M10.0225 62.3428C9.35022 66.4624 9 70.6903 9 75C9 79.3094 9.35032 83.5369 10.0225 87.6562C4.27788 86.31 0 81.1551 0 75C0 68.8448 4.27777 63.689 10.0225 62.3428Z" fill="#3794FF"/>
</svg>
